<?xml version="1.0" standalone="no"?>
<!DOCTYPE svg PUBLIC "-//W3C//DTD SVG 20010904//EN"
 "http://www.w3.org/TR/2001/REC-SVG-20010904/DTD/svg10.dtd">
<svg version="1.0" xmlns="http://www.w3.org/2000/svg"
 width="150px" height="50px" viewBox="0 0 1500.000000 522.000000"
 preserveAspectRatio="xMidYMid meet">
<g transform="translate(0.000000,522.000000) scale(0.100000,-0.100000)"
fill="#3498DB" stroke="none">
<path d="M2405 5214 c-475 -49 -856 -179 -1220 -418 -635 -417 -1054 -1077
-1161 -1831 -26 -181 -26 -529 0 -710 107 -754 526 -1414 1161 -1831 321 -210
661 -338 1065 -401 142 -22 537 -25 675 -5 460 66 879 233 1220 487 352 262
611 573 800 960 122 249 199 495 241 770 27 170 27 580 0 750 -67 437 -239
848 -498 1193 -415 552 -1018 909 -1718 1017 -101 15 -476 28 -565 19z m604
-184 c1076 -191 1883 -1032 2027 -2110 22 -166 22 -454 0 -620 -73 -544 -317
-1041 -701 -1425 -361 -361 -812 -594 -1332 -687 -112 -20 -161 -23 -393 -23
-294 0 -378 9 -615 70 -632 161 -1185 584 -1514 1158 -151 262 -254 561 -303
877 -17 114 -17 566 0 680 49 316 152 615 303 877 370 646 1028 1099 1749
1207 163 24 161 24 415 21 194 -2 264 -7 364 -25z"/>
<path d="M2616 4335 c-634 -90 -1154 -507 -1391 -1115 -53 -136 -145 -310
-223 -420 -130 -184 -352 -383 -565 -508 -42 -25 -75 -47 -73 -50 18 -17 179
-44 297 -49 153 -6 255 5 388 43 202 59 354 154 527 329 125 127 174 161 248
171 l44 6 12 77 c72 444 446 793 892 830 193 16 366 -16 533 -99 260 -128 454
-366 524 -643 l18 -71 54 3 c129 6 659 48 663 52 9 9 -25 154 -64 271 -95 285
-276 560 -495 751 -247 217 -528 352 -857 413 -117 22 -408 27 -532 9z"/>
<path d="M2751 3549 c-403 -47 -744 -352 -833 -744 -12 -52 -20 -96 -17 -98 2
-3 20 -7 40 -11 l35 -6 13 50 c21 80 83 199 148 280 183 230 483 340 783 286
341 -61 620 -314 673 -611 5 -33 14 -64 18 -69 8 -9 179 128 179 144 0 25 -57
184 -88 245 -53 106 -108 182 -191 266 -157 157 -330 242 -546 268 -100 12
-108 12 -214 0z"/>
<path d="M2584 3205 c-204 -44 -405 -190 -513 -372 -45 -77 -96 -221 -106
-303 -6 -51 -12 -60 -72 -122 l-66 -66 629 -736 629 -736 7 118 c12 218 58
420 141 627 l53 130 -39 19 c-21 10 -65 43 -97 73 -157 145 -184 382 -64 563
15 22 30 40 35 40 8 0 28 -23 233 -265 l110 -129 24 54 c65 148 85 355 49 504
-75 303 -304 530 -607 601 -80 18 -262 18 -346 0z"/>
<path d="M8485 4366 c-153 -36 -253 -92 -362 -201 -67 -68 -89 -99 -127 -176
-102 -213 -102 -436 1 -649 38 -79 59 -108 132 -180 69 -69 103 -94 171 -127
123 -61 193 -76 335 -77 142 0 214 16 330 74 180 88 299 225 362 415 24 72 27
95 27 225 0 133 -2 152 -27 225 -77 221 -233 377 -452 451 -66 22 -102 27
-205 30 -83 3 -145 -1 -185 -10z m236 -216 c166 -32 308 -158 361 -323 30 -90
29 -239 -1 -327 -45 -129 -131 -228 -249 -283 -58 -27 -80 -32 -167 -35 -119
-4 -191 15 -279 73 -135 90 -209 236 -210 415 0 311 254 535 545 480z"/>
<path d="M6490 3670 l0 -690 120 0 120 0 0 290 0 290 330 0 330 0 0 -290 0
-290 120 0 120 0 0 690 0 690 -120 0 -120 0 0 -290 0 -290 -330 0 -330 0 0
290 0 290 -120 0 -120 0 0 -690z"/>
<path d="M9650 3670 l0 -690 120 0 120 0 0 219 0 219 208 4 c180 4 216 8 277
27 98 32 163 71 224 136 95 101 135 237 112 384 -30 200 -173 338 -388 376
-55 10 -167 14 -375 15 l-298 0 0 -690z m697 428 c81 -43 123 -113 123 -206 0
-99 -45 -173 -134 -220 -50 -26 -56 -27 -248 -30 l-198 -4 0 247 0 246 203 -3
c198 -3 203 -4 254 -30z"/>
<path d="M10957 4353 c-4 -3 -7 -314 -7 -690 l0 -683 485 0 485 0 0 110 0 110
-360 0 -360 0 0 580 0 580 -118 0 c-65 0 -122 -3 -125 -7z"/>
<path d="M12150 3670 l0 -690 120 0 120 0 0 690 0 690 -120 0 -120 0 0 -690z"/>
<path d="M12624 4347 c-2 -7 -3 -58 -2 -113 l3 -99 218 -3 217 -2 0 -575 0
-575 120 0 120 0 0 575 0 575 220 0 220 0 0 115 0 115 -555 0 c-451 0 -557 -2
-561 -13z"/>
<path d="M13970 3670 l0 -690 515 0 515 0 0 105 0 105 -395 0 -395 0 0 185 0
185 345 0 345 0 0 110 0 110 -345 0 -345 0 0 180 0 180 390 0 390 0 0 110 0
110 -510 0 -510 0 0 -690z"/>
<path d="M8845 2164 c-235 -38 -436 -183 -537 -386 -56 -113 -72 -185 -72
-323 0 -143 16 -214 76 -335 60 -121 179 -240 298 -298 125 -61 193 -77 340
-77 148 0 217 16 338 77 158 79 289 230 348 403 36 104 45 292 20 398 -59 252
-254 454 -501 521 -60 17 -253 29 -310 20z m175 -225 c327 -52 500 -427 337
-733 -143 -270 -513 -324 -727 -107 -98 99 -140 209 -140 361 0 270 183 469
450 489 8 0 44 -4 80 -10z"/>
<path d="M6980 1456 l0 -696 120 0 120 0 0 225 0 225 183 0 c269 0 389 34 502
141 105 99 139 191 133 358 -3 94 -7 114 -35 174 -39 82 -117 163 -193 200
-114 55 -149 60 -502 64 l-328 5 0 -696z m671 442 c20 -9 55 -33 78 -53 97
-88 90 -267 -14 -353 -63 -52 -116 -62 -316 -62 l-179 0 0 246 0 246 198 -4
c154 -3 205 -7 233 -20z"/>
<path d="M9781 2138 c0 -7 107 -321 238 -698 l237 -685 99 -3 c54 -1 102 1
106 5 5 5 83 226 174 493 91 266 167 485 169 487 1 2 76 -212 165 -475 90
-262 167 -485 173 -495 8 -15 22 -17 110 -15 l100 3 239 690 c131 380 239 694
239 698 0 4 -57 6 -126 5 l-126 -3 -161 -502 c-89 -277 -164 -503 -167 -503
-4 0 -81 226 -172 503 l-165 502 -104 3 -104 3 -168 -512 c-93 -281 -170 -510
-171 -508 -3 3 -300 927 -321 997 -6 21 -10 22 -136 22 -97 0 -129 -3 -128
-12z"/>
<path d="M12055 2138 c-3 -7 -4 -319 -3 -693 l3 -680 515 0 515 0 3 108 3 107
-396 0 -395 0 0 185 0 185 345 0 345 0 0 110 0 110 -345 0 -345 0 0 180 0 180
390 0 391 0 -3 108 -3 107 -508 3 c-401 2 -509 0 -512 -10z"/>
<path d="M13375 2138 c-3 -7 -4 -319 -3 -693 l3 -680 120 0 120 0 3 243 2 242
149 0 148 0 173 -245 172 -245 139 0 c76 0 139 3 139 6 0 4 -81 121 -181 261
-100 140 -180 255 -178 257 2 2 35 17 72 34 91 42 176 124 213 205 27 57 29
71 29 182 0 120 0 122 -38 197 -57 116 -143 183 -292 224 -82 23 -782 34 -790
12z m723 -233 c61 -18 119 -66 139 -114 21 -50 18 -151 -5 -198 -56 -108 -137
-133 -429 -133 l-183 0 0 230 0 230 213 0 c163 0 226 -4 265 -15z"/>
</g>
</svg>
