<?xml version="1.0" standalone="no"?>
<!DOCTYPE svg PUBLIC "-//W3C//DTD SVG 20010904//EN"
 "http://www.w3.org/TR/2001/REC-SVG-20010904/DTD/svg10.dtd">
<svg version="1.0" xmlns="http://www.w3.org/2000/svg"
 width="24px" height="50px" viewBox="0 0 761.000000 1079.000000"
 preserveAspectRatio="xMidYMid meet">
<metadata>
Created by potrace 1.13, written by Peter Selinger 2001-2015
</metadata>
<g transform="translate(0.000000,1079.000000) scale(0.100000,-0.100000)"
fill="#000000" stroke="none">
<path fill="#efb463" d="M3615 10704 c-222 -10 -563 -57 -765 -106 -284 -68 -650 -207 -885
-334 -1107 -599 -1726 -1715 -1729 -3119 -1 -220 2 -288 17 -365 62 -331 202
-767 383 -1197 164 -391 504 -1088 752 -1543 340 -625 430 -785 655 -1165 71
-121 182 -308 245 -415 106 -180 427 -702 645 -1050 227 -363 853 -1320 862
-1320 5 0 413 622 637 970 268 417 732 1168 931 1505 400 680 561 964 905
1600 135 248 448 887 579 1180 252 564 421 1063 482 1422 29 171 35 328 22
548 -27 447 -85 765 -206 1130 -105 318 -207 526 -388 795 -167 248 -341 443
-570 638 -319 271 -700 483 -1117 622 -290 97 -528 148 -850 184 -138 15 -462
26 -605 20z m509 -659 c541 -63 1038 -267 1476 -605 122 -94 396 -368 490
-490 338 -438 542 -935 605 -1476 19 -167 19 -491 0 -658 -63 -541 -267 -1038
-605 -1476 -94 -122 -368 -396 -490 -490 -438 -338 -935 -542 -1476 -605 -167
-19 -491 -19 -658 0 -541 63 -1038 267 -1476 605 -122 94 -396 368 -490 490
-338 438 -542 935 -605 1476 -19 167 -19 491 0 658 63 541 267 1038 605 1476
94 122 368 396 490 490 433 334 932 540 1463 604 157 19 512 20 671 1z"/>
<path fill="#fff" d="M3612 10030 c-1132 -76 -2102 -789 -2516 -1847 -193 -494 -242 -1095
-131 -1626 233 -1124 1118 -2009 2242 -2242 371 -77 805 -77 1176 0 1124 233
2009 1118 2242 2242 77 371 77 805 0 1176 -233 1124 -1118 2009 -2242 2242
-232 48 -541 70 -771 55z m588 -94 c173 -28 326 -65 483 -117 961 -319 1677
-1131 1877 -2125 68 -339 68 -769 0 -1108 -113 -563 -402 -1090 -814 -1484
-431 -412 -947 -664 -1556 -759 -164 -26 -626 -26 -790 0 -181 28 -333 65
-493 118 -961 319 -1677 1131 -1877 2125 -68 339 -68 769 0 1108 194 965 881
1766 1801 2099 208 76 407 123 639 153 146 18 588 12 730 -10z"/>
<path fill="#d07f22" d="M3577 9929 c-238 -18 -515 -78 -740 -160 -270 -98 -588 -281 -819
-471 -142 -118 -337 -322 -450 -472 -303 -404 -484 -856 -549 -1371 -16 -129
-16 -501 0 -630 51 -411 176 -779 378 -1117 373 -626 988 -1090 1685 -1273
287 -75 601 -106 877 -87 402 28 719 112 1066 282 779 382 1345 1121 1509
1969 40 204 50 313 50 541 0 118 -6 260 -13 315 -51 411 -176 779 -378 1117
-373 625 -988 1090 -1685 1273 -304 79 -620 108 -931 84z m821 -810 c365 -40
686 -170 979 -398 376 -293 631 -692 734 -1148 13 -56 21 -104 18 -107 -2 -2
-157 -16 -344 -30 -187 -14 -362 -27 -388 -30 -66 -5 -79 10 -121 127 -88 244
-201 409 -378 552 -146 118 -264 178 -443 226 -99 26 -394 38 -498 20 -144
-25 -354 -113 -468 -197 -65 -48 -212 -194 -271 -267 -89 -113 -167 -305 -222
-549 -5 -22 -14 -28 -58 -38 -71 -15 -130 -56 -278 -194 -69 -65 -163 -146
-210 -182 -152 -117 -377 -209 -567 -235 -177 -23 -603 5 -603 40 0 5 44 35
97 67 272 165 529 418 707 697 41 64 107 195 166 327 175 391 247 505 455 719
180 186 321 289 551 404 207 104 409 167 605 191 140 17 406 20 537 5z m-103
-919 c186 -17 328 -73 482 -189 193 -146 343 -352 418 -575 31 -91 31 -103 3
-127 -64 -53 -159 -112 -168 -103 -5 5 -14 34 -20 64 -20 109 -131 292 -243
402 -211 207 -499 304 -822 277 -124 -10 -202 -32 -310 -84 -211 -104 -378
-287 -481 -529 -16 -37 -35 -71 -42 -73 -7 -3 -22 3 -33 13 -25 22 -21 48 23
179 89 266 277 489 530 629 149 83 269 111 518 124 19 1 85 -3 145 -8z m-25
-400 c105 -26 245 -92 327 -154 157 -119 285 -312 330 -498 26 -106 26 -400 0
-478 -35 -106 -59 -160 -71 -160 -7 0 -61 57 -122 127 -60 70 -144 167 -188
216 l-78 88 -23 -21 c-31 -29 -79 -122 -99 -189 -37 -126 -9 -298 67 -412 44
-66 83 -104 165 -159 34 -23 62 -44 62 -46 0 -3 -16 -44 -36 -92 -90 -214
-145 -421 -169 -630 -9 -75 -19 -162 -23 -194 l-7 -56 -507 591 c-640 748
-617 721 -780 916 -76 90 -138 170 -138 176 0 7 29 45 65 85 39 44 69 87 74
109 5 20 19 74 31 121 50 197 176 382 348 513 106 81 180 115 327 153 79 21
107 23 225 20 91 -3 163 -12 220 -26z"/>
<path fill="#fff" d="M4067 9090 c-15 -5 -85 -16 -155 -25 -249 -32 -461 -99 -690 -220
-431 -228 -719 -560 -932 -1071 -58 -141 -150 -311 -236 -441 -112 -169 -369
-420 -569 -557 -43 -28 -54 -41 -45 -50 7 -7 73 -12 189 -14 262 -6 411 28
638 141 134 68 193 112 358 267 143 135 190 170 269 205 49 22 54 27 65 72 22
86 83 257 114 318 123 247 348 469 590 580 194 89 359 116 599 97 216 -16 375
-66 529 -164 91 -58 234 -184 309 -271 77 -91 180 -278 224 -407 13 -41 31
-79 39 -84 12 -8 605 36 678 51 28 5 29 8 23 42 -12 73 -98 310 -154 426 -197
409 -537 737 -952 921 -193 86 -352 128 -630 168 -186 27 -216 29 -261 16z"/>
<path fill="#fff" d="M3955 8135 c-302 -49 -613 -277 -744 -545 l-22 -45 37 45 c167 200
353 331 559 391 71 21 101 24 265 24 160 0 196 -3 266 -22 314 -86 545 -272
680 -549 30 -61 54 -119 54 -128 0 -36 75 -3 101 45 21 40 -44 199 -140 344
-60 91 -208 239 -296 297 -91 60 -245 124 -347 143 -97 18 -300 18 -413 0z"/>
<path fill="#fff" d="M3860 7755 c-187 -38 -365 -147 -495 -303 -89 -105 -130 -189 -170
-342 -35 -136 -42 -151 -107 -233 -21 -27 -38 -54 -38 -59 0 -17 62 -91 793
-946 280 -326 511 -592 513 -589 2 2 18 80 34 173 36 206 65 316 130 489 28
73 50 138 50 143 0 5 -12 18 -27 28 -56 36 -128 111 -174 182 -63 97 -82 177
-77 339 3 112 5 122 39 194 44 91 107 162 140 157 13 -2 60 -45 117 -108 222
-247 254 -280 262 -275 4 3 16 37 26 77 26 101 26 364 0 458 -86 315 -345 554
-665 614 -99 19 -261 19 -351 1z"/>
</g>
</svg>
